<svg width="666" height="368" viewBox="0 0 666 368" fill="none" xmlns="http://www.w3.org/2000/svg">
<g id="palette">
<rect width="666" height="368" fill="white"/>
<g id="palette-parking-available">
<rect width="189.967" height="88.9847" transform="translate(25 19)" fill="#FCF7F3"/>
<g id="Frame 2">
<path id="&#226;&#132;&#150;26" d="M99.0632 75.5V71.6222L108.124 63.2326C108.895 62.4869 109.541 61.8157 110.063 61.2191C110.593 60.6225 110.995 60.0384 111.268 59.4666C111.542 58.8866 111.679 58.261 111.679 57.5898C111.679 56.8441 111.509 56.2019 111.169 55.6634C110.829 55.1165 110.365 54.698 109.777 54.408C109.189 54.1097 108.522 53.9606 107.776 53.9606C106.997 53.9606 106.318 54.118 105.738 54.4329C105.158 54.7478 104.71 55.1993 104.395 55.7876C104.08 56.3759 103.923 57.0761 103.923 57.8881H98.8146C98.8146 56.2227 99.1916 54.7768 99.9457 53.5504C100.7 52.3241 101.756 51.3754 103.115 50.7042C104.474 50.033 106.04 49.6974 107.813 49.6974C109.636 49.6974 111.223 50.0206 112.574 50.6669C113.932 51.3049 114.989 52.1915 115.743 53.3267C116.497 54.4619 116.874 55.7628 116.874 57.2294C116.874 58.1906 116.683 59.1393 116.302 60.0756C115.929 61.012 115.262 62.0518 114.301 63.1953C113.34 64.3305 111.985 65.6935 110.237 67.2844L106.521 70.9261V71.1001H117.21V75.5H99.0632ZM130.518 75.848C128.662 75.848 127.009 75.529 125.559 74.891C124.117 74.2447 122.978 73.3581 122.141 72.2312C121.312 71.096 120.885 69.7868 120.861 68.3036H126.28C126.313 68.9251 126.516 69.4719 126.889 69.9442C127.27 70.4083 127.775 70.7687 128.405 71.0256C129.035 71.2824 129.743 71.4109 130.53 71.4109C131.351 71.4109 132.076 71.2659 132.705 70.9759C133.335 70.6858 133.828 70.284 134.184 69.7702C134.541 69.2565 134.719 68.6641 134.719 67.9929C134.719 67.3134 134.528 66.7127 134.147 66.1907C133.774 65.6604 133.236 65.2461 132.531 64.9478C131.835 64.6495 131.007 64.5004 130.046 64.5004H127.672V60.5479H130.046C130.858 60.5479 131.574 60.4071 132.196 60.1254C132.825 59.8436 133.314 59.4542 133.662 58.957C134.01 58.4516 134.184 57.8633 134.184 57.1921C134.184 56.5541 134.031 55.9948 133.725 55.5142C133.426 55.0253 133.004 54.6442 132.457 54.3707C131.918 54.0973 131.288 53.9606 130.568 53.9606C129.838 53.9606 129.171 54.0932 128.566 54.3583C127.962 54.6152 127.477 54.9839 127.112 55.4645C126.748 55.9451 126.553 56.5085 126.528 57.1548H121.37C121.395 55.6882 121.813 54.3956 122.625 53.277C123.437 52.1584 124.531 51.2842 125.907 50.6545C127.29 50.0165 128.852 49.6974 130.592 49.6974C132.349 49.6974 133.886 50.0165 135.204 50.6545C136.521 51.2925 137.544 52.1542 138.274 53.2397C139.011 54.3169 139.376 55.5266 139.367 56.869C139.376 58.2942 138.932 59.4832 138.037 60.4361C137.151 61.389 135.995 61.9938 134.57 62.2507V62.4496C136.442 62.6899 137.868 63.3403 138.845 64.4009C139.831 65.4532 140.32 66.7707 140.312 68.3533C140.32 69.8034 139.902 71.0919 139.057 72.2188C138.22 73.3456 137.064 74.2322 135.589 74.8786C134.114 75.5249 132.424 75.848 130.518 75.848Z" fill="#50331D"/>
</g>
</g>
<g id="palette-parking-hover/click">
<rect width="189.967" height="88.9847" transform="translate(25 135)" fill="#D6A681"/>
<g id="Frame 2_2">
<path id="&#226;&#132;&#150;26_2" d="M99.0632 191.5V187.622L108.124 179.233C108.895 178.487 109.541 177.816 110.063 177.219C110.593 176.623 110.995 176.038 111.268 175.467C111.542 174.887 111.679 174.261 111.679 173.59C111.679 172.844 111.509 172.202 111.169 171.663C110.829 171.116 110.365 170.698 109.777 170.408C109.189 170.11 108.522 169.961 107.776 169.961C106.997 169.961 106.318 170.118 105.738 170.433C105.158 170.748 104.71 171.199 104.395 171.788C104.08 172.376 103.923 173.076 103.923 173.888H98.8146C98.8146 172.223 99.1916 170.777 99.9457 169.55C100.7 168.324 101.756 167.375 103.115 166.704C104.474 166.033 106.04 165.697 107.813 165.697C109.636 165.697 111.223 166.021 112.574 166.667C113.932 167.305 114.989 168.192 115.743 169.327C116.497 170.462 116.874 171.763 116.874 173.229C116.874 174.191 116.683 175.139 116.302 176.076C115.929 177.012 115.262 178.052 114.301 179.195C113.34 180.33 111.985 181.694 110.237 183.284L106.521 186.926V187.1H117.21V191.5H99.0632ZM130.518 191.848C128.662 191.848 127.009 191.529 125.559 190.891C124.117 190.245 122.978 189.358 122.141 188.231C121.312 187.096 120.885 185.787 120.861 184.304H126.28C126.313 184.925 126.516 185.472 126.889 185.944C127.27 186.408 127.775 186.769 128.405 187.026C129.035 187.282 129.743 187.411 130.53 187.411C131.351 187.411 132.076 187.266 132.705 186.976C133.335 186.686 133.828 186.284 134.184 185.77C134.541 185.257 134.719 184.664 134.719 183.993C134.719 183.313 134.528 182.713 134.147 182.191C133.774 181.66 133.236 181.246 132.531 180.948C131.835 180.65 131.007 180.5 130.046 180.5H127.672V176.548H130.046C130.858 176.548 131.574 176.407 132.196 176.125C132.825 175.844 133.314 175.454 133.662 174.957C134.01 174.452 134.184 173.863 134.184 173.192C134.184 172.554 134.031 171.995 133.725 171.514C133.426 171.025 133.004 170.644 132.457 170.371C131.918 170.097 131.288 169.961 130.568 169.961C129.838 169.961 129.171 170.093 128.566 170.358C127.962 170.615 127.477 170.984 127.112 171.464C126.748 171.945 126.553 172.509 126.528 173.155H121.37C121.395 171.688 121.813 170.396 122.625 169.277C123.437 168.158 124.531 167.284 125.907 166.654C127.29 166.016 128.852 165.697 130.592 165.697C132.349 165.697 133.886 166.016 135.204 166.654C136.521 167.292 137.544 168.154 138.274 169.24C139.011 170.317 139.376 171.527 139.367 172.869C139.376 174.294 138.932 175.483 138.037 176.436C137.151 177.389 135.995 177.994 134.57 178.251V178.45C136.442 178.69 137.868 179.34 138.845 180.401C139.831 181.453 140.32 182.771 140.312 184.353C140.32 185.803 139.902 187.092 139.057 188.219C138.22 189.346 137.064 190.232 135.589 190.879C134.114 191.525 132.424 191.848 130.518 191.848Z" fill="#50331D"/>
</g>
</g>
<g id="palette-parking-sold">
<rect width="189.967" height="88.9847" transform="translate(25 251)" fill="#E7CBB6"/>
</g>
<g id="palette-parking-reserved">
<rect width="189.967" height="88.9847" transform="translate(25 251)" fill="#E7CBB6"/>
</g>
<g id="palette-storage-available">
<path id="Vector 49" d="M382 19L284 19L284 108L382 108V19Z" fill="#F5E4D6"/>
<g id="Frame 45">
<rect width="84" height="19" transform="translate(291 54.5)" fill="#F5E4D6"/>
<path id="12.1" d="M323.006 57.8636V69.5H320.545V60.1989H320.477L317.812 61.8693V59.6875L320.693 57.8636H323.006ZM325.771 69.5V67.7273L329.913 63.892C330.266 63.5511 330.561 63.2443 330.8 62.9716C331.042 62.6989 331.226 62.4318 331.351 62.1705C331.476 61.9053 331.538 61.6193 331.538 61.3125C331.538 60.9716 331.461 60.678 331.305 60.4318C331.15 60.1818 330.938 59.9905 330.669 59.858C330.4 59.7216 330.095 59.6534 329.754 59.6534C329.398 59.6534 329.088 59.7254 328.822 59.8693C328.557 60.0133 328.353 60.2197 328.209 60.4886C328.065 60.7576 327.993 61.0777 327.993 61.4489H325.658C325.658 60.6875 325.83 60.0265 326.175 59.4659C326.519 58.9053 327.002 58.4716 327.624 58.1648C328.245 57.858 328.961 57.7045 329.771 57.7045C330.605 57.7045 331.33 57.8523 331.947 58.1477C332.569 58.4394 333.052 58.8447 333.396 59.3636C333.741 59.8826 333.913 60.4773 333.913 61.1477C333.913 61.5871 333.826 62.0208 333.652 62.4489C333.482 62.8769 333.177 63.3523 332.737 63.875C332.298 64.3939 331.679 65.017 330.879 65.7443L329.18 67.4091V67.4886H334.067V69.5H325.771ZM337.287 69.6477C336.912 69.6477 336.59 69.5152 336.321 69.25C336.056 68.9811 335.923 68.6591 335.923 68.2841C335.923 67.9129 336.056 67.5947 336.321 67.3295C336.59 67.0644 336.912 66.9318 337.287 66.9318C337.651 66.9318 337.969 67.0644 338.241 67.3295C338.514 67.5947 338.651 67.9129 338.651 68.2841C338.651 68.5341 338.586 68.7633 338.457 68.9716C338.332 69.1761 338.168 69.3409 337.963 69.4659C337.759 69.5871 337.533 69.6477 337.287 69.6477ZM340.638 69.5L345.462 59.9545V59.875H339.842V57.8636H348.007V59.9034L343.178 69.5H340.638Z" fill="black"/>
</g>
</g>
<g id="palette-storage-hover/click">
<path id="Vector 49_2" d="M382 135L284 135L284 224L382 224V135Z" fill="#D6A681"/>
<g id="Frame 45_2">
<rect width="84" height="19" transform="translate(291 170.5)" fill="#D6A681"/>
<path id="12.1_2" d="M323.006 173.864V185.5H320.545V176.199H320.477L317.812 177.869V175.688L320.693 173.864H323.006ZM325.771 185.5V183.727L329.913 179.892C330.266 179.551 330.561 179.244 330.8 178.972C331.042 178.699 331.226 178.432 331.351 178.17C331.476 177.905 331.538 177.619 331.538 177.312C331.538 176.972 331.461 176.678 331.305 176.432C331.15 176.182 330.938 175.991 330.669 175.858C330.4 175.722 330.095 175.653 329.754 175.653C329.398 175.653 329.088 175.725 328.822 175.869C328.557 176.013 328.353 176.22 328.209 176.489C328.065 176.758 327.993 177.078 327.993 177.449H325.658C325.658 176.687 325.83 176.027 326.175 175.466C326.519 174.905 327.002 174.472 327.624 174.165C328.245 173.858 328.961 173.705 329.771 173.705C330.605 173.705 331.33 173.852 331.947 174.148C332.569 174.439 333.052 174.845 333.396 175.364C333.741 175.883 333.913 176.477 333.913 177.148C333.913 177.587 333.826 178.021 333.652 178.449C333.482 178.877 333.177 179.352 332.737 179.875C332.298 180.394 331.679 181.017 330.879 181.744L329.18 183.409V183.489H334.067V185.5H325.771ZM337.287 185.648C336.912 185.648 336.59 185.515 336.321 185.25C336.056 184.981 335.923 184.659 335.923 184.284C335.923 183.913 336.056 183.595 336.321 183.33C336.59 183.064 336.912 182.932 337.287 182.932C337.651 182.932 337.969 183.064 338.241 183.33C338.514 183.595 338.651 183.913 338.651 184.284C338.651 184.534 338.586 184.763 338.457 184.972C338.332 185.176 338.168 185.341 337.963 185.466C337.759 185.587 337.533 185.648 337.287 185.648ZM340.638 185.5L345.462 175.955V175.875H339.842V173.864H348.007V175.903L343.178 185.5H340.638Z" fill="black"/>
</g>
</g>
<g id="palette-storage-sold">
<path id="Vector 49_3" d="M382 250L284 250L284 339L382 339V250Z" fill="#E7CBB6"/>
</g>
<g id="palette-storage-reserved">
<path id="Vector 49_3" d="M382 250L284 250L284 339L382 339V250Z" fill="#E7CBB6"/>
</g>
<rect id="palette-outline" x="459" y="16" width="75" height="68" fill="#50331D"/>
<rect id="palette-text" x="459" y="132" width="75" height="68" fill="#50331D"/>
</g>
</svg>
