<svg xmlns="http://www.w3.org/2000/svg" viewBox="0 0 680 360" role="img" aria-label="План парковки">
  <rect x="20" y="20" width="640" height="320" rx="18" fill="#f7f4ef" stroke="#2d2d2d" stroke-width="3" />
  <rect x="60" y="60" width="560" height="240" rx="12" fill="#efe9dc" stroke="#2d2d2d" stroke-width="2" />
  <text x="340" y="48" text-anchor="middle" font-family="Space Grotesk, Segoe UI, sans-serif" font-size="14" fill="#2d2d2d">Уровень A</text>

  <g id="spots-row-top">
    <rect id="P1" class="parking-spot" x="90" y="90" width="90" height="80" rx="8" stroke="#2d2d2d" stroke-width="2" />
    <rect id="P2" class="parking-spot" x="190" y="90" width="90" height="80" rx="8" stroke="#2d2d2d" stroke-width="2" />
    <rect id="P3" class="parking-spot" x="290" y="90" width="90" height="80" rx="8" stroke="#2d2d2d" stroke-width="2" />
    <rect id="P4" class="parking-spot" x="390" y="90" width="90" height="80" rx="8" stroke="#2d2d2d" stroke-width="2" />
    <rect id="P5" class="parking-spot" x="490" y="90" width="90" height="80" rx="8" stroke="#2d2d2d" stroke-width="2" />
  </g>

  <g id="spots-row-bottom">
    <rect id="P6" class="parking-spot" x="90" y="190" width="90" height="80" rx="8" stroke="#2d2d2d" stroke-width="2" />
    <rect id="P7" class="parking-spot" x="190" y="190" width="90" height="80" rx="8" stroke="#2d2d2d" stroke-width="2" />
    <rect id="P8" class="parking-spot" x="290" y="190" width="90" height="80" rx="8" stroke="#2d2d2d" stroke-width="2" />
    <rect id="P9" class="parking-spot" x="390" y="190" width="90" height="80" rx="8" stroke="#2d2d2d" stroke-width="2" />
    <rect id="P10" class="parking-spot" x="490" y="190" width="90" height="80" rx="8" stroke="#2d2d2d" stroke-width="2" />
  </g>

  <g class="labels">
    <text class="spot-label" x="135" y="135" text-anchor="middle">P1</text>
    <text class="spot-label" x="235" y="135" text-anchor="middle">P2</text>
    <text class="spot-label" x="335" y="135" text-anchor="middle">P3</text>
    <text class="spot-label" x="435" y="135" text-anchor="middle">P4</text>
    <text class="spot-label" x="535" y="135" text-anchor="middle">P5</text>

    <text class="spot-label" x="135" y="235" text-anchor="middle">P6</text>
    <text class="spot-label" x="235" y="235" text-anchor="middle">P7</text>
    <text class="spot-label" x="335" y="235" text-anchor="middle">P8</text>
    <text class="spot-label" x="435" y="235" text-anchor="middle">P9</text>
    <text class="spot-label" x="535" y="235" text-anchor="middle">P10</text>
  </g>

  <rect x="300" y="150" width="80" height="60" rx="10" fill="#d4cec1" stroke="#2d2d2d" stroke-width="2" />
  <text x="340" y="185" text-anchor="middle" font-family="Space Grotesk, Segoe UI, sans-serif" font-size="12" fill="#2d2d2d">Лифт</text>
</svg>
